{"title":"The.Angels'.Share.2012.720p.BluRay.DD5.1.x264-EbP","uid":7961304,"size":6430311098,"categoryP":"video","categoryS":"hd___movies","magnet":"?xt=urn:btih:f9ba8be62973a6af8e579f998e06c841a9063bc1&amp;dn=The.Angels%27.Share.2012.720p.BluRay.DD5.1.x264-EbP&amp;tr=udp%3A%2F%2Ftracker.openbittorrent.com%3A80&amp;tr=udp%3A%2F%2Fopen.demonii.com%3A1337&amp;tr=udp%3A%2F%2Ftracker.coppersurfer.tk%3A6969&amp;tr=udp%3A%2F%2Fexodus.desync.com%3A6969","seeders":1,"leechers":1,"uploader":"rpessoa","files":1,"time":1356592541,"description":"Narrowly avoiding jail, new dad Robbie vows to turn over a new leaf. A visit to a whisky distillery inspires him and his mates to seek a way out of their hopeless lives.\n\nGeneral \nUnique ID : 191092353682923749553480669469351467579 (0x8FC30C71B6C8AE5FB65EB7E6AB35DA3B) \nComplete name : The.Angels'.Share.2012.720p.BluRay.DD5.1.x264-EbP.mkv \nFormat : Matroska \nFormat version : Version 2 \nFile size : 5.99 GiB \nDuration : 1h 41mn \nOverall bit rate : 8 478 Kbps \nEncoded date : UTC 2012-10-28 13:01:38 \nWriting application : mkvmerge v5.7.0 ('The Whirlwind') built on Jul 8 2012 20:08:51 \nWriting library : libebml v1.2.3 + libmatroska v1.3.0 \n\nVideo \nID : 1 \nFormat : AVC \nFormat/Info : Advanced Video Codec \nFormat profile : &lt;a class=&quot;__cf_email__&quot; href=&quot;/cdn-cgi/l/email-protection&quot; data-cfemail=&quot;f6be9f919eb6bac2d8c7&quot;&gt;[email&amp;#160;protected]&lt;/a&gt;&lt;script cf-hash='f9e31' type=&quot;text/javascript&quot;&gt;\n/* &lt;![CDATA[ */!function(){try{var t=&quot;currentScript&quot;in document?document.currentScript:function(){for(var t=document.getElementsByTagName(&quot;script&quot;),e=t.length;e--;)if(t[e].getAttribute(&quot;cf-hash&quot;))return t[e]}();if(t&amp;&amp;t.previousSibling){var e,r,n,i,c=t.previousSibling,a=c.getAttribute(&quot;data-cfemail&quot;);if(a){for(e=&quot;&quot;,r=parseInt(a.substr(0,2),16),n=2;a.length-n;n+=2)i=parseInt(a.substr(n,2),16)^r,e+=String.fromCharCode(i);e=document.createTextNode(e),c.parentNode.replaceChild(e,c)}}}catch(u){}}();/* ]]&gt; */&lt;/script&gt; \nFormat settings, CABAC : Yes \nFormat settings, ReFrames : 9 frames \nCodec ID : V_MPEG4/ISO/AVC \nDuration : 1h 41mn \nBit rate : 7 669 Kbps \nWidth : 1 280 pixels \nHeight : 692 pixels \nDisplay aspect ratio : 1.85:1 \nFrame rate : 23.976 fps \nColor space : YUV \nChroma subsampling : 4:2:0 \nBit depth : 8 bits \nScan type : Progressive \nBits/(Pixel*Frame) : 0.361 \nStream size : 5.42 GiB (90%) \nWriting library : x264 core 125 r2200 999b753 \nEncoding settings : cabac=1 / ref=9 / deblock=1:-3:-3 / analyse=0x3:0x113 / me=tesa / subme=11 / psy=1 / psy_rd=1.15:0.00 / mixed_ref=1 / me_range=16 / chroma_me=1 / trellis=2 / 8x8dct=1 / cqm=0 / deadzone=21,11 / fast_pskip=0 / chroma_qp_offset=-2 / threads=12 / lookahead_threads=2 / sliced_threads=0 / nr=0 / decimate=0 / interlaced=0 / bluray_compat=0 / constrained_intra=0 / bframes=9 / b_pyramid=2 / b_adapt=2 / b_bias=0 / direct=3 / weightb=1 / open_gop=0 / weightp=2 / keyint=250 / keyint_min=23 / scenecut=40 / intra_refresh=0 / rc=crf / mbtree=0 / crf=17.1 / qcomp=0.70 / qpmin=0 / qpmax=69 / qpstep=4 / ip_ratio=1.40 / pb_ratio=1.30 / aq=1:0.70 \nLanguage : English \nDefault : Yes \nForced : No \n\nAudio \nID : 2 \nFormat : AC-3 \nFormat/Info : Audio Coding 3 \nMode extension : CM (complete main) \nFormat settings, Endianness : Big \nCodec ID : A_AC3 \nDuration : 1h 41mn \nBit rate mode : Constant \nBit rate : 640 Kbps \nChannel(s) : 6 channels \nChannel positions : Front: L C R, Side: L R, LFE \nSampling rate : 48.0 KHz \nBit depth : 16 bits \nCompression mode : Lossy \nStream size : 463 MiB (8%) \nLanguage : English \nDefault : Yes \nForced : No \n\nMenu \n00:00:00.000 : en:00:00:00.000 \n00:07:25.195 : en:00:07:25.195 \n00:15:47.572 : en:00:15:47.572 \n00:21:52.186 : en:00:21:52.186 \n00:29:00.197 : en:00:29:00.197 \n00:40:40.980 : en:00:40:40.980 \n00:47:06.323 : en:00:47:06.323 \n00:54:32.811 : en:00:54:32.811 \n01:04:44.380 : en:01:04:44.380 \n01:13:45.588 : en:01:13:45.588 \n01:27:20.610 : en:01:27:20.610 \n01:39:20.413 : en:01:39:20.413 \n\n","torrent":{"xt":"urn:btih:f9ba8be62973a6af8e579f998e06c841a9063bc1","amp;dn":"The.Angels%27.Share.2012.720p.BluRay.DD5.1.x264-EbP","amp;tr":["udp%3A%2F%2Ftracker.openbittorrent.com%3A80","udp%3A%2F%2Fopen.demonii.com%3A1337","udp%3A%2F%2Ftracker.coppersurfer.tk%3A6969","udp%3A%2F%2Fexodus.desync.com%3A6969"],"infoHash":"f9ba8be62973a6af8e579f998e06c841a9063bc1","infoHashBuffer":{"type":"Buffer","data":[249,186,139,230,41,115,166,175,142,87,159,153,142,6,200,65,169,6,59,193]},"announce":[],"urlList":[]}}